<svg height="464pt" viewBox="-56 0 464 464" width="464pt" xmlns="http://www.w3.org/2000/svg"><path d="m168 87.59375v-16c-5.183594-.523438-10.214844-1.554688-15.0625-3.019531l-6.144531 14.851562c6.773437 2.167969 13.878906 3.558594 21.207031 4.167969zm0 0"/><path d="m184 87.59375c7.328125-.609375 14.433594-2 21.207031-4.167969l-6.144531-14.851562c-4.847656 1.464843-9.878906 2.496093-15.0625 3.019531zm0 0"/><path d="m114.070312 65.238281c5.488282 4.648438 11.515626 8.671875 17.960938 12.007813l6.121094-14.789063c-4.527344-2.441406-8.792969-5.3125-12.753906-8.554687zm0 0"/><path d="m102.761719 53.929688 11.335937-11.335938c-3.242187-3.953125-6.105468-8.21875-8.554687-12.753906l-14.789063 6.121094c3.34375 6.445312 7.359375 12.472656 12.007813 17.96875zm0 0"/><path d="m99.425781 15.0625c-1.464843-4.847656-2.503906-9.878906-3.019531-15.0625h-16c.609375 7.328125 2 14.433594 4.167969 21.207031zm0 0"/><path d="m32 129.121094c0 25.109375-5.808594 49.582031-16.792969 71.863281 10.410157-9.0625 18.609375-20.601563 23.535157-33.753906 6.136718-16.375 9.257812-33.535157 9.257812-51.039063 0-22.457031-5.304688-44.917968-15.34375-64.992187l-12.230469-24.472657-17.28125 8.640626 7.40625 12.953124c14.023438 24.566407 21.449219 52.511719 21.449219 80.800782zm0 0"/><path d="m271.59375 0h-16c-.523438 5.183594-1.554688 10.214844-3.019531 15.0625l14.851562 6.144531c2.167969-6.773437 3.558594-13.878906 4.167969-21.207031zm0 0"/><path d="m313.257812 167.214844c4.925782 13.152344 13.117188 24.695312 23.527344 33.761718-10.976562-22.28125-16.785156-46.746093-16.785156-71.855468 0-28.289063 7.425781-56.226563 21.457031-80.792969l7.40625-12.953125-17.277343-8.640625-12.242188 24.464844c-10.039062 20.074219-15.34375 42.542969-15.34375 64.992187 0 17.503906 3.121094 34.664063 9.257812 51.023438zm0 0"/><path d="m249.238281 53.929688c4.648438-5.488282 8.671875-11.515626 12.007813-17.960938l-14.789063-6.128906c-2.441406 4.527344-5.3125 8.792968-8.554687 12.753906zm0 0"/><path d="m213.839844 62.457031 6.121094 14.789063c6.4375-3.335938 12.464843-7.351563 17.960937-12.007813l-11.335937-11.335937c-3.945313 3.242187-8.210938 6.105468-12.746094 8.554687zm0 0"/><path d="m176 56c32.574219 0 59.488281-24.480469 63.449219-56h-126.898438c3.960938 31.519531 30.875 56 63.449219 56zm0 0"/><path d="m184 239.664062v24.335938h95.59375c-1.691406-21.992188-10.152344-42.121094-23.433594-58.183594-10.097656 12.328125-32.160156 31.519532-72.160156 33.847656zm0 0"/><path d="m184 304.335938c40 2.335937 62.0625 21.519531 72.160156 33.847656 13.28125-16.0625 21.742188-36.183594 23.433594-58.183594h-95.59375zm0 0"/><path d="m352 432v-202.753906c-24.71875-10.757813-44.246094-31.101563-53.726562-56.414063-6.808594-18.152343-10.273438-37.214843-10.273438-56.640625 0-24.917968 5.886719-49.871094 17.03125-72.152344l12.234375-24.472656-30.019531-15.007812c-6.269532 55.867187-53.742188 99.441406-111.246094 99.441406s-104.976562-43.574219-111.246094-99.433594l-30.019531 15.007813 12.234375 24.472656c11.144531 22.273437 17.03125 47.226563 17.03125 72.144531 0 19.425782-3.464844 38.488282-10.273438 56.648438-9.480468 25.304687-29.007812 45.65625-53.726562 56.40625v202.753906h296v16h-296v16h352v-16h-40v-16zm-176-40c-66.167969 0-120-53.832031-120-120s53.832031-120 120-120 120 53.832031 120 120-53.832031 120-120 120zm0 0"/><path d="m184 320.320312v55.28125c23.296875-1.785156 44.425781-11.273437 60.921875-25.929687-7.265625-9.449219-25.464844-27-60.921875-29.351563zm0 0"/><path d="m95.839844 338.183594c10.097656-12.328125 32.160156-31.519532 72.160156-33.847656v-24.335938h-95.59375c1.683594 21.992188 10.152344 42.121094 23.433594 58.183594zm0 0"/><path d="m107.105469 349.6875c16.496093 14.640625 37.605469 24.121094 60.894531 25.90625v-55.273438c-35.28125 2.375-53.585938 19.960938-60.894531 29.367188zm0 0"/><path d="m95.839844 205.816406c-13.28125 16.0625-21.742188 36.183594-23.433594 58.183594h95.59375v-24.335938c-40-2.328124-62.0625-21.519531-72.160156-33.847656zm0 0"/><path d="m168 223.679688v-55.28125c-23.296875 1.785156-44.425781 11.273437-60.921875 25.921874 7.289063 9.472657 25.480469 27.007813 60.921875 29.359376zm0 0"/><path d="m244.894531 194.3125c-16.496093-14.640625-37.605469-24.121094-60.894531-25.90625v55.273438c35.28125-2.375 53.585938-19.960938 60.894531-29.367188zm0 0"/></svg>