<svg height="512" viewBox="0 0 512 512" width="512" xmlns="http://www.w3.org/2000/svg"><g id="outline"><path d="m223.988 288.725q-.012-.378-.06-.754c-.01-.085-.023-.17-.036-.255-.041-.254-.093-.5-.158-.755-.014-.051-.024-.1-.038-.154a8.13 8.13 0 0 0 -.315-.908c-.01-.025-.024-.05-.035-.076a8.062 8.062 0 0 0 -.379-.762c-.04-.07-.081-.138-.122-.207q-.187-.31-.407-.606c-.049-.068-.1-.136-.148-.2a8.075 8.075 0 0 0 -.633-.722l-16-16a8 8 0 0 0 -11.8.536l-40 48c-.17.2-.328.417-.476.634-.056.082-.1.168-.155.252-.085.136-.172.272-.248.411-.057.1-.1.21-.156.315-.061.125-.124.249-.178.376s-.088.227-.131.341-.093.247-.133.371-.067.236-.1.355-.067.25-.094.376-.045.236-.065.355-.043.259-.058.389-.023.233-.032.349c-.01.135-.018.269-.021.4v.337c0 .139.008.278.018.416.007.109.017.217.029.326.016.141.036.282.059.422.018.106.036.211.058.315.029.142.063.281.1.421.027.1.054.205.085.307.043.138.091.274.141.411.037.1.074.2.115.3.054.132.116.262.178.391.048.1.094.2.146.3.066.125.14.246.213.368.059.1.116.2.179.293.078.118.164.231.249.345.069.094.135.189.209.28.1.119.2.232.307.347.072.078.139.158.213.234.013.012.023.026.036.039l16 16a8 8 0 0 0 9.235 1.5l32-16a8 8 0 0 0 4.183-5.215l8-32c.01-.041.012-.082.022-.122.06-.257.107-.514.141-.774.008-.062.019-.123.026-.184a8.1 8.1 0 0 0 .047-.934c.001-.062-.009-.123-.011-.184zm-46.408 38.522-6.757-6.757 29.714-35.657 6.6 6.6-6.009 24.036z"/><path d="m318.146 267.86a8 8 0 0 0 -11.8-.536l-16 16a8 8 0 0 0 -2.1 7.6l8 32a8 8 0 0 0 4.183 5.215l32 16a8 8 0 0 0 9.235-1.5l16-16a8 8 0 0 0 .489-10.779zm16.274 59.387-23.551-11.775-6.01-24.036 6.6-6.6 29.714 35.657z"/><path d="m480.326 401.3 6.144-18.424a119.625 119.625 0 0 0 4.075-59.72l-.792-4.263a460.253 460.253 0 0 0 -74.416-178.258l-16.759-24.21c-.044-.064-.094-.12-.14-.182s-.114-.15-.173-.225c-.153-.193-.312-.376-.479-.552-.051-.053-.1-.108-.152-.16a7.908 7.908 0 0 0 -1.532-1.189c-.025-.015-.046-.033-.071-.048l-96-56a8 8 0 0 0 -4.031-1.088h-80a8 8 0 0 0 -4.031 1.09l-96 56c-.025.015-.046.033-.071.048a7.908 7.908 0 0 0 -1.532 1.189c-.053.052-.1.107-.152.16-.167.176-.326.359-.479.552-.059.075-.117.149-.173.225s-.1.118-.14.182l-16.76 24.211a463.357 463.357 0 0 0 -74.417 178.27l-.787 4.237a119.634 119.634 0 0 0 4.073 59.736l6.143 18.419-6.5 25.984a11.952 11.952 0 0 0 8.343 14.45l48.3 13.8a11.919 11.919 0 0 0 3.28.457 11.987 11.987 0 0 0 11.658-9.085l6.851-27.4 28.9-69.345 11.494 51.699v31.121a8 8 0 0 0 8 8h208a8 8 0 0 0 8-8v-31.121l11.489-51.7 28.9 69.345 6.851 27.405a12.019 12.019 0 0 0 14.938 8.627l48.3-13.8a11.952 11.952 0 0 0 8.343-14.449zm-6.3-79.47.793 4.264a103.586 103.586 0 0 1 -3.526 51.722l-5.546 16.629-45.1 12.886-27.671-66.407 35.141-21.084a8 8 0 0 0 -8.232-13.721l-33.13 19.881-1.311-3.147 36.213-36.213a8 8 0 0 0 -11.314-11.315l-20.082 20.075a767.363 767.363 0 0 0 9.739-121.627v-27.181l2.183 3.152a444.336 444.336 0 0 1 71.841 172.088zm-120.443 71.151h-89.583v-199.011a21.17 21.17 0 0 0 10.917-29.044l-6.507-13.013a72.738 72.738 0 0 0 52.635-39.135l9.261-18.523 53.694 31.321v48.2a751.318 751.318 0 0 1 -17.859 162.7zm-49.583 16v16h-8v-16zm16 0h8v16h-8zm-128 0v16h-8v-16zm16 0h8v16h-8zm-49.583-16-12.558-56.509a751.318 751.318 0 0 1 -17.859-162.699v-48.2l53.694-31.321 9.261 18.522a72.734 72.734 0 0 0 52.635 39.136l-6.507 13.013a21.17 21.17 0 0 0 10.917 29.047v199.011zm54.244-316.79 29.544 59.088a56.746 56.746 0 0 1 -36.939-29.657l-9.723-19.445zm103.8 9.986-9.723 19.446a56.75 56.75 0 0 1 -36.938 29.656l29.543-59.088zm-60.461 76.692 4.606 9.213a5.149 5.149 0 1 1 -9.212 0zm0-35.777-11.055-22.111h22.11zm19.055-38.111h-38.11l-8-16h54.11zm-199.263 118.836 10.891 5.448-5.172 20.686-18.758 3.125c3.994-9.903 8.356-19.686 13.039-29.259zm-38.606 118.265.788-4.237a448.215 448.215 0 0 1 18.235-67.458l33.1-5.515a8 8 0 0 0 6.447-5.951l8-32a8 8 0 0 0 -4.182-9.095l-16.501-8.256a447.631 447.631 0 0 1 26.745-43.826l2.182-3.151v27.18a767.363 767.363 0 0 0 9.739 121.627l-20.082-20.082a8 8 0 0 0 -11.314 11.315l36.213 36.213-1.311 3.154-33.129-19.879a8 8 0 0 0 -8.232 13.721l35.141 21.084-27.671 66.407-45.1-12.886-5.544-16.626a103.6 103.6 0 0 1 -3.524-51.739zm.731 100.27h.009zm44.328 12.665-40.607-11.6 4.117-16.469 40.607 11.6zm77.755-30.036h8v16h-8zm72 16v-16h48v16zm120 0h-8v-16h8zm77.755 14.036-4.117-16.469 40.607-11.6 4.117 16.469zm44.318-12.663h.009z"/><path d="m328 168.981a32 32 0 1 0 32 32 32.037 32.037 0 0 0 -32-32zm0 48a16 16 0 1 1 16-16 16.018 16.018 0 0 1 -16 16z"/></g></svg>