<svg height="512" viewBox="0 0 512 512" width="512" xmlns="http://www.w3.org/2000/svg"><g id="solid"><path d="m184 408.981h8v16h-8z"/><path d="m90.343 275.323a8 8 0 0 1 11.314 0l20.082 20.077a767.363 767.363 0 0 1 -9.739-121.627v-27.18l-2.182 3.151a447.631 447.631 0 0 0 -26.745 43.826l16.506 8.256a8 8 0 0 1 4.182 9.095l-8 32a8 8 0 0 1 -6.447 5.951l-33.1 5.515a448.215 448.215 0 0 0 -18.235 67.458l-.788 4.237a103.6 103.6 0 0 0 3.524 51.739l5.545 16.626 45.1 12.886 27.671-66.407-35.147-21.084a8 8 0 0 1 8.232-13.721l33.129 19.879 1.311-3.147-36.213-36.215a8 8 0 0 1 0-11.315z"/><path d="m170.823 320.49 6.757 6.757 23.551-11.775 6.009-24.036-6.603-6.603z"/><path d="m208 408.981h8v16h-8z"/><path d="m160 408.981h8v16h-8z"/><path d="m248 193.97a21.17 21.17 0 0 1 -10.917-29.044l6.507-13.013a72.734 72.734 0 0 1 -52.635-39.136l-9.261-18.522-53.694 31.321v48.2a751.318 751.318 0 0 0 17.859 162.7l12.558 56.509h89.583zm-24.05 95.872c-.007.061-.018.122-.026.184-.034.26-.081.517-.141.774-.01.04-.012.081-.022.122l-8 32a8 8 0 0 1 -4.183 5.215l-32 16a8 8 0 0 1 -9.235-1.5l-16-16c-.013-.013-.023-.027-.036-.039-.074-.076-.141-.156-.213-.234-.1-.115-.21-.228-.307-.347-.074-.091-.14-.186-.209-.28-.085-.114-.171-.227-.249-.345-.063-.1-.12-.195-.179-.293-.073-.122-.147-.243-.213-.368-.052-.1-.1-.2-.146-.3-.062-.129-.124-.259-.178-.391-.041-.1-.078-.2-.115-.3-.05-.137-.1-.273-.141-.411-.031-.1-.058-.2-.085-.307-.037-.14-.071-.279-.1-.421-.022-.1-.04-.209-.058-.315-.023-.14-.043-.281-.059-.422-.012-.109-.022-.217-.029-.326-.01-.138-.016-.277-.018-.416 0-.112 0-.225 0-.337 0-.135.011-.269.021-.4.009-.116.018-.233.032-.349s.036-.259.058-.389.04-.237.065-.355.061-.251.094-.376.062-.237.1-.355.087-.247.133-.371.083-.228.131-.341.117-.251.178-.376c.052-.1.1-.212.156-.315.076-.139.163-.275.248-.411.052-.084.1-.17.155-.252.148-.217.306-.429.476-.634l40-48a8 8 0 0 1 11.8-.536l16 16a8.075 8.075 0 0 1 .633.722c.052.066.1.134.148.2q.219.3.407.606c.041.069.082.137.122.207a8.062 8.062 0 0 1 .379.762c.011.026.025.051.035.076a8.13 8.13 0 0 1 .315.908c.014.051.024.1.038.154.065.25.117.5.158.755.013.085.026.17.036.255q.048.376.06.754c0 .061.008.122.009.183a8.1 8.1 0 0 1 -.045.935z"/><path d="m251.394 172.082a5.149 5.149 0 1 0 9.212 0l-4.606-9.213z"/><path d="m226.176 128.505a56.655 56.655 0 0 0 16.029 6.774l-29.544-59.088-17.118 9.986 9.723 19.445a56.676 56.676 0 0 0 20.91 22.883z"/><path d="m275.055 88.981 8-16h-54.11l8 16z"/><path d="m41.638 427.415 40.607 11.602 4.117-16.469-40.607-11.602z"/><path d="m37.917 426.352.01.002-.009-.002z"/><path d="m86.683 213.265-10.891-5.448c-4.683 9.573-9.045 19.356-13.039 29.259l18.758-3.125z"/><path d="m244.945 104.981 11.055 22.111 11.055-22.111z"/><path d="m232 408.981h48v16h-48z"/><path d="m285.822 128.506a56.68 56.68 0 0 0 20.912-22.883l9.723-19.446-17.119-9.986-29.538 59.088a56.64 56.64 0 0 0 16.022-6.773z"/><path d="m425.638 422.548 4.117 16.469 40.607-11.602-4.117-16.469z"/><circle cx="328" cy="200.981" r="16"/><path d="m474.073 426.354.01-.002h-.001z"/><path d="m474.817 326.1-.793-4.264a444.336 444.336 0 0 0 -71.841-172.088l-2.183-3.156v27.181a767.363 767.363 0 0 1 -9.739 121.627l20.082-20.082a8 8 0 0 1 11.314 11.315l-36.213 36.213 1.311 3.154 33.129-19.877a8 8 0 0 1 8.232 13.721l-35.141 21.084 27.671 66.407 45.1-12.886 5.546-16.629a103.586 103.586 0 0 0 3.525-51.72z"/><path d="m321.045 112.778a72.738 72.738 0 0 1 -52.635 39.135l6.507 13.013a21.17 21.17 0 0 1 -10.917 29.044v199.011h89.583l12.558-56.509a751.318 751.318 0 0 0 17.859-162.699v-48.2l-53.694-31.318zm36.612 213.861-16 16a8 8 0 0 1 -9.235 1.5l-32-16a8 8 0 0 1 -4.183-5.215l-8-32a8 8 0 0 1 2.1-7.6l16-16a8 8 0 0 1 11.8.536l40 48a8 8 0 0 1 -.482 10.779zm2.343-125.658a32 32 0 1 1 -32-32 32.036 32.036 0 0 1 32 32z"/><path d="m320 408.981h8v16h-8z"/><path d="m296 408.981h8v16h-8z"/><path d="m344 408.981h8v16h-8z"/><path d="m304.859 291.436 6.01 24.036 23.551 11.775 6.757-6.757-29.714-35.657z"/></g></svg>